# xmcd CD database file
#
# Track frame offsets:
#	150
#	12274
#	23758
#	38078
#	49010
#	60442
#	74153
#	85918
#	99077
#	112065
#	125427
#	169572
#	181493
#
# Disc length: 2569 seconds
#
# Revision: 1
# Processed by: cddbd v1.5.2PL0 Copyright (c) Steve Scherf et al.
# Submitted via: CDex 1.51
#
DISCID=a40a070d
DTITLE=Lowell Fulson - Hung Down Head
DYEAR=1900
DGENRE=Blues
TTITLE0=That's All Right
TTITLE1=I Still Love You, Baby
TTITLE2=Reconsider Baby
TTITLE3=I Want To Know
TTITLE4=Low Society
TTITLE5=Check Yourself
TTITLE6=It's Your Own Fault
TTITLE7=Do Me Right
TTITLE8=Trouble, Trouble
TTITLE9=Hung Down Head
TTITLE10=Tollin' Bells
TTITLE11=Don't Drive Me Baby
TTITLE12=Blue Shadows
EXTD=
EXTT0=
EXTT1=
EXTT2=
EXTT3=
EXTT4=
EXTT5=
EXTT6=
EXTT7=
EXTT8=
EXTT9=
EXTT10=
EXTT11=
EXTT12=
PLAYORDER=
